<mxfile host="app.diagrams.net" agent="Mozilla/5.0 (Windows NT 10.0; Win64; x64) AppleWebKit/537.36 (KHTML, like Gecko) Chrome/128.0.0.0 Safari/537.36" version="24.7.12">
  <diagram name="Page-1" id="KiPqW6jJqt-szqUVUywa">
    <mxGraphModel dx="1168" dy="801" grid="0" gridSize="10" guides="1" tooltips="1" connect="1" arrows="1" fold="1" page="0" pageScale="1" pageWidth="850" pageHeight="1100" math="0" shadow="0">
      <root>
        <mxCell id="0" />
        <mxCell id="1" parent="0" />
        <mxCell id="8M9derKUMyDQeJgVNwB6-1" value="START" style="rounded=1;whiteSpace=wrap;html=1;" vertex="1" parent="1">
          <mxGeometry x="-33" y="23" width="120" height="60" as="geometry" />
        </mxCell>
        <mxCell id="8M9derKUMyDQeJgVNwB6-2" value="STOP" style="rounded=1;whiteSpace=wrap;html=1;" vertex="1" parent="1">
          <mxGeometry x="249" y="575" width="120" height="60" as="geometry" />
        </mxCell>
        <mxCell id="8M9derKUMyDQeJgVNwB6-3" value="lucky: int = random 1-100&lt;div&gt;&lt;br&gt;&lt;div&gt;counter: int = 0&lt;/div&gt;&lt;div&gt;guess: int = 0&lt;/div&gt;&lt;/div&gt;" style="rounded=0;whiteSpace=wrap;html=1;" vertex="1" parent="1">
          <mxGeometry x="-63" y="98" width="180" height="70" as="geometry" />
        </mxCell>
        <mxCell id="8M9derKUMyDQeJgVNwB6-4" value="while True" style="ellipse;whiteSpace=wrap;html=1;aspect=fixed;" vertex="1" parent="1">
          <mxGeometry x="-21" y="190" width="108" height="108" as="geometry" />
        </mxCell>
        <mxCell id="8M9derKUMyDQeJgVNwB6-6" value="guess: int&lt;div&gt;&quot;guess a number&quot;&lt;/div&gt;" style="shape=card;whiteSpace=wrap;html=1;" vertex="1" parent="1">
          <mxGeometry x="-51" y="316" width="157" height="44" as="geometry" />
        </mxCell>
        <mxCell id="8M9derKUMyDQeJgVNwB6-9" value="" style="edgeStyle=none;curved=1;rounded=0;orthogonalLoop=1;jettySize=auto;html=1;fontSize=12;startSize=8;endSize=8;" edge="1" parent="1" source="8M9derKUMyDQeJgVNwB6-7" target="8M9derKUMyDQeJgVNwB6-8">
          <mxGeometry relative="1" as="geometry" />
        </mxCell>
        <mxCell id="8M9derKUMyDQeJgVNwB6-13" value="NO" style="edgeLabel;html=1;align=center;verticalAlign=middle;resizable=0;points=[];fontSize=12;" vertex="1" connectable="0" parent="8M9derKUMyDQeJgVNwB6-9">
          <mxGeometry x="-0.2163" relative="1" as="geometry">
            <mxPoint as="offset" />
          </mxGeometry>
        </mxCell>
        <mxCell id="8M9derKUMyDQeJgVNwB6-11" style="edgeStyle=none;curved=1;rounded=0;orthogonalLoop=1;jettySize=auto;html=1;fontSize=12;startSize=8;endSize=8;" edge="1" parent="1" source="8M9derKUMyDQeJgVNwB6-7">
          <mxGeometry relative="1" as="geometry">
            <mxPoint x="205" y="470" as="targetPoint" />
          </mxGeometry>
        </mxCell>
        <mxCell id="8M9derKUMyDQeJgVNwB6-12" value="&amp;nbsp; &amp;nbsp; &amp;nbsp; &amp;nbsp;YES BREAK" style="edgeLabel;html=1;align=center;verticalAlign=middle;resizable=0;points=[];fontSize=12;" vertex="1" connectable="0" parent="8M9derKUMyDQeJgVNwB6-11">
          <mxGeometry x="-0.5135" relative="1" as="geometry">
            <mxPoint y="1" as="offset" />
          </mxGeometry>
        </mxCell>
        <mxCell id="8M9derKUMyDQeJgVNwB6-7" value="guess == lucky&lt;div&gt;?&lt;/div&gt;" style="rhombus;whiteSpace=wrap;html=1;" vertex="1" parent="1">
          <mxGeometry x="-28" y="421" width="117" height="105" as="geometry" />
        </mxCell>
        <mxCell id="8M9derKUMyDQeJgVNwB6-17" style="edgeStyle=none;curved=1;rounded=0;orthogonalLoop=1;jettySize=auto;html=1;fontSize=12;startSize=8;endSize=8;" edge="1" parent="1" source="8M9derKUMyDQeJgVNwB6-8">
          <mxGeometry relative="1" as="geometry">
            <mxPoint x="152" y="665" as="targetPoint" />
          </mxGeometry>
        </mxCell>
        <mxCell id="8M9derKUMyDQeJgVNwB6-18" value="YES" style="edgeLabel;html=1;align=center;verticalAlign=middle;resizable=0;points=[];fontSize=12;" vertex="1" connectable="0" parent="8M9derKUMyDQeJgVNwB6-17">
          <mxGeometry x="-0.6162" y="-3" relative="1" as="geometry">
            <mxPoint as="offset" />
          </mxGeometry>
        </mxCell>
        <mxCell id="8M9derKUMyDQeJgVNwB6-20" style="edgeStyle=none;curved=1;rounded=0;orthogonalLoop=1;jettySize=auto;html=1;fontSize=12;startSize=8;endSize=8;" edge="1" parent="1" source="8M9derKUMyDQeJgVNwB6-8">
          <mxGeometry relative="1" as="geometry">
            <mxPoint x="-86" y="650" as="targetPoint" />
          </mxGeometry>
        </mxCell>
        <mxCell id="8M9derKUMyDQeJgVNwB6-21" value="NO" style="edgeLabel;html=1;align=center;verticalAlign=middle;resizable=0;points=[];fontSize=12;" vertex="1" connectable="0" parent="8M9derKUMyDQeJgVNwB6-20">
          <mxGeometry x="-0.5914" y="-2" relative="1" as="geometry">
            <mxPoint y="1" as="offset" />
          </mxGeometry>
        </mxCell>
        <mxCell id="8M9derKUMyDQeJgVNwB6-8" value="guess &amp;gt; lucky&lt;div&gt;?&lt;/div&gt;" style="rhombus;whiteSpace=wrap;html=1;" vertex="1" parent="1">
          <mxGeometry x="-23.5" y="561" width="117" height="105" as="geometry" />
        </mxCell>
        <mxCell id="8M9derKUMyDQeJgVNwB6-14" value="" style="edgeStyle=none;curved=1;rounded=0;orthogonalLoop=1;jettySize=auto;html=1;fontSize=12;startSize=8;endSize=8;" edge="1" parent="1" source="8M9derKUMyDQeJgVNwB6-10" target="8M9derKUMyDQeJgVNwB6-2">
          <mxGeometry relative="1" as="geometry" />
        </mxCell>
        <mxCell id="8M9derKUMyDQeJgVNwB6-10" value="&quot;Correct&quot;&lt;div&gt;how many guess?{counter}&lt;/div&gt;" style="shape=document;whiteSpace=wrap;html=1;boundedLbl=1;" vertex="1" parent="1">
          <mxGeometry x="229" y="438" width="160" height="80" as="geometry" />
        </mxCell>
        <mxCell id="8M9derKUMyDQeJgVNwB6-15" value="counter += 1" style="rounded=0;whiteSpace=wrap;html=1;" vertex="1" parent="1">
          <mxGeometry x="-53" y="372" width="162" height="39" as="geometry" />
        </mxCell>
        <mxCell id="8M9derKUMyDQeJgVNwB6-25" style="edgeStyle=none;curved=1;rounded=0;orthogonalLoop=1;jettySize=auto;html=1;fontSize=12;startSize=8;endSize=8;" edge="1" parent="1" source="8M9derKUMyDQeJgVNwB6-16">
          <mxGeometry relative="1" as="geometry">
            <mxPoint x="49" y="754" as="targetPoint" />
          </mxGeometry>
        </mxCell>
        <mxCell id="8M9derKUMyDQeJgVNwB6-16" value="&quot;guess lower&quot;" style="shape=document;whiteSpace=wrap;html=1;boundedLbl=1;" vertex="1" parent="1">
          <mxGeometry x="120" y="666" width="90" height="51" as="geometry" />
        </mxCell>
        <mxCell id="8M9derKUMyDQeJgVNwB6-24" style="edgeStyle=none;curved=1;rounded=0;orthogonalLoop=1;jettySize=auto;html=1;fontSize=12;startSize=8;endSize=8;" edge="1" parent="1" source="8M9derKUMyDQeJgVNwB6-19">
          <mxGeometry relative="1" as="geometry">
            <mxPoint x="39" y="761" as="targetPoint" />
          </mxGeometry>
        </mxCell>
        <mxCell id="8M9derKUMyDQeJgVNwB6-19" value="&quot;guess higher&quot;" style="shape=document;whiteSpace=wrap;html=1;boundedLbl=1;" vertex="1" parent="1">
          <mxGeometry x="-130" y="653" width="90" height="51" as="geometry" />
        </mxCell>
        <mxCell id="8M9derKUMyDQeJgVNwB6-22" value="" style="endArrow=none;html=1;rounded=0;fontSize=12;startSize=8;endSize=8;curved=1;" edge="1" parent="1">
          <mxGeometry width="50" height="50" relative="1" as="geometry">
            <mxPoint x="14" y="764" as="sourcePoint" />
            <mxPoint x="62" y="764" as="targetPoint" />
          </mxGeometry>
        </mxCell>
        <mxCell id="8M9derKUMyDQeJgVNwB6-23" value="" style="endArrow=none;html=1;rounded=0;fontSize=12;startSize=8;endSize=8;curved=1;" edge="1" parent="1">
          <mxGeometry width="50" height="50" relative="1" as="geometry">
            <mxPoint x="7" y="774" as="sourcePoint" />
            <mxPoint x="81" y="774" as="targetPoint" />
          </mxGeometry>
        </mxCell>
      </root>
    </mxGraphModel>
  </diagram>
</mxfile>
